<svg width="1500" height="447" viewBox="0 0 1500 447" fill="none" xmlns="http://www.w3.org/2000/svg">
<ellipse cx="76.9629" cy="77.67" rx="26.5" ry="26.5" transform="rotate(45 76.9629 77.67)" fill="white"/>
<ellipse cx="323.036" cy="322.329" rx="26.5" ry="26.5" transform="rotate(45 323.036 322.329)" fill="white"/>
<ellipse cx="199.499" cy="26.5" rx="26.5" ry="26.5" transform="rotate(90 199.499 26.5)" fill="white"/>
<ellipse cx="200.499" cy="373.5" rx="26.5" ry="26.5" transform="rotate(90 200.499 373.5)" fill="white"/>
<ellipse cx="322.329" cy="76.9629" rx="26.5" ry="26.5" transform="rotate(135 322.329 76.9629)" fill="white"/>
<ellipse cx="77.6701" cy="323.036" rx="26.5" ry="26.5" transform="rotate(135 77.6701 323.036)" fill="white"/>
<circle cx="151.016" cy="81.7446" r="19" transform="rotate(67.5 151.016 81.7446)" fill="white"/>
<circle cx="249.907" cy="317.875" r="19" transform="rotate(67.5 249.907 317.875)" fill="white"/>
<circle cx="248.985" cy="81.7437" r="19" transform="rotate(112.5 248.985 81.7437)" fill="white"/>
<circle cx="151.941" cy="318.639" r="19" transform="rotate(112.5 151.941 318.639)" fill="white"/>
<circle cx="318.257" cy="151.017" r="19" transform="rotate(157.5 318.257 151.017)" fill="white"/>
<circle cx="82.1257" cy="249.909" r="19" transform="rotate(157.5 82.1257 249.909)" fill="white"/>
<circle cx="318.257" cy="248.984" r="19" transform="rotate(-157.5 318.257 248.984)" fill="white"/>
<circle cx="81.3608" cy="151.941" r="19" transform="rotate(-157.5 81.3608 151.941)" fill="white"/>
<ellipse cx="373.5" cy="199.499" rx="26.5" ry="26.5" transform="rotate(-180 373.5 199.499)" fill="white"/>
<ellipse cx="26.5" cy="200.499" rx="26.5" ry="26.5" transform="rotate(-180 26.5 200.499)" fill="white"/>
<circle cx="152.623" cy="152.624" r="10" transform="rotate(45 152.623 152.624)" fill="white"/>
<circle cx="247.376" cy="247.376" r="10" transform="rotate(45 247.376 247.376)" fill="white"/>
<circle cx="199.999" cy="133" r="10" transform="rotate(90 199.999 133)" fill="white"/>
<circle cx="199.999" cy="267" r="10" transform="rotate(90 199.999 267)" fill="white"/>
<circle cx="247.376" cy="152.623" r="10" transform="rotate(135 247.376 152.623)" fill="white"/>
<circle cx="152.623" cy="247.376" r="10" transform="rotate(135 152.623 247.376)" fill="white"/>
<circle cx="267" cy="200" r="10" transform="rotate(-180 267 200)" fill="white"/>
<circle cx="133" cy="200" r="10" transform="rotate(-180 133 200)" fill="white"/>
<path d="M1463.76 143.021L1478.84 111.647C1496.36 120.204 1504.1 140.984 1496.77 158.912L1363.83 436.796V436.388C1359.35 445.76 1348.35 449.427 1339.39 445.352C1330.42 440.87 1326.75 429.869 1330.83 420.905L1379.32 319.042L1293.18 136.91C1289.1 127.538 1293.58 116.944 1302.96 112.87C1312.33 109.203 1322.92 113.685 1326.59 122.649L1400.5 275.037L1463.76 143.021Z" fill="white"/>
<path d="M1148.35 169.103C1145.91 210.256 1269.64 179.289 1272.9 264.04C1274.12 290.932 1253.75 327.195 1193.03 327.195C1137.21 327.195 1117.25 277.893 1117.25 277.893C1116.03 275.856 1115.62 273.411 1115.62 270.559C1115.62 260.78 1123.36 253.038 1132.73 253.038C1139.66 253.038 1145.36 256.705 1148.22 262.41C1148.62 263.225 1149.03 263.632 1149.03 264.04C1167.77 303.563 1238.26 299.488 1238.26 263.225C1238.26 215.145 1117.38 247.334 1113.72 171.955C1111.27 112.874 1190.18 112.467 1190.18 112.467C1241.93 112.467 1262.22 140.309 1262.22 140.309C1266.3 145.742 1267.7 147.263 1269.01 152.533C1270.37 157.966 1267.66 166.115 1259.51 168.831C1251.36 171.548 1243.21 169.103 1238.67 162.584C1213.13 125.895 1149.98 140.174 1148.35 169.103Z" fill="white"/>
<path d="M934.222 110.969V135.688C950.928 116.537 975.375 112.87 1002.67 112.87C1052.79 112.87 1093.13 145.467 1093.13 195.583V310.078C1093.13 319.449 1085.39 327.191 1076.02 327.191C1066.24 327.191 1058.5 319.449 1058.5 310.078V195.583C1058.5 160.95 1031.88 138.404 996.02 138.404C960.164 138.404 934.222 159.32 934.222 195.583V310.485C934.222 319.857 926.481 327.191 916.702 327.191C907.33 327.191 899.589 319.857 899.589 310.485V145.602C899.589 126.452 915.072 110.969 934.222 110.969Z" fill="white"/>
<path d="M839.527 146.281V127.538C839.527 117.759 847.269 110.018 857.047 110.018C866.826 110.018 874.568 117.759 874.568 127.538V325.153C855.825 325.153 840.342 310.078 839.527 291.335V290.52C820.377 312.93 793.077 327.191 762.111 327.191C705.475 327.191 659.432 278.296 659.432 218.401C659.432 158.505 705.475 109.61 762.111 109.61C793.077 109.61 820.377 123.871 839.527 146.281ZM764.555 298.261C802.856 298.261 839.527 261.591 839.527 218.401C839.527 175.21 802.856 138.947 764.555 138.947C725.847 138.947 694.473 175.21 694.473 218.401C694.473 261.591 725.847 298.261 764.555 298.261Z" fill="white"/>
<path d="M516.706 47H695.986C704.95 47 712.284 54.7416 712.284 63.7056C712.284 72.6696 704.95 80.4112 695.986 80.4112H622.644V294.189C622.644 312.524 607.976 327.192 589.64 327.192V80.4112H516.706C507.335 80.4112 500 72.6696 500 63.7056C500 54.7416 507.335 47 516.706 47Z" fill="white"/>
</svg>
